<svg width="62" height="65" viewBox="0 0 62 65" fill="none" xmlns="http://www.w3.org/2000/svg">
<path fill-rule="evenodd" clip-rule="evenodd" d="M27.257 2.05352L22.1396 5.77161H15.8142C13.0895 5.77161 10.6748 7.52599 9.83291 10.1172L7.87815 16.1331L2.76092 19.8511C0.556514 21.4525 -0.365784 24.2914 0.476278 26.8826L2.43083 32.8984L0.476278 38.9143C-0.365784 41.5055 0.556514 44.3441 2.76092 45.9457L7.87815 49.6636L9.83291 55.6794C10.6748 58.2707 13.0895 60.0252 15.8142 60.0252H22.1396L27.257 63.7431C29.4612 65.3447 32.4459 65.3447 34.6504 63.7431L39.7676 60.0252H46.0931C48.8176 60.0252 51.2324 58.2707 52.0744 55.6794L54.029 49.6636L59.1464 45.9457C61.3506 44.3441 62.2729 41.5055 61.4311 38.9143L59.4763 32.8984L61.4311 26.8826C62.2729 24.2914 61.3506 21.4525 59.1464 19.8511L54.029 16.1331L52.0744 10.1172C51.2324 7.52599 48.8176 5.77161 46.0931 5.77161H39.7676L34.6504 2.05352C32.4459 0.45213 29.4612 0.45213 27.257 2.05352ZM28.2751 3.45495C29.8724 2.29465 32.035 2.29465 33.632 3.45495C36.0559 5.21598 38.9771 7.33849 38.9771 7.33849C39.1251 7.44596 39.3034 7.50375 39.4863 7.50375H46.0931C48.0672 7.50375 49.8168 8.77505 50.4269 10.6525C51.3527 13.5021 52.4686 16.936 52.4686 16.936C52.5251 17.11 52.6353 17.2616 52.7833 17.369C52.7833 17.369 55.7044 19.4913 58.1283 21.2526C59.7253 22.4129 60.3936 24.4697 59.7835 26.3473C58.8577 29.1968 57.7421 32.6307 57.7421 32.6307C57.6856 32.8047 57.6856 32.9922 57.7421 33.166C57.7421 33.166 58.8577 36.6001 59.7835 39.4495C60.3936 41.3272 59.7253 43.384 58.1283 44.5443C55.7044 46.3053 52.7833 48.4276 52.7833 48.4276C52.6353 48.5351 52.5251 48.6868 52.4686 48.8608C52.4686 48.8608 51.3527 52.2947 50.4269 55.1442C49.8168 57.0218 48.0672 58.2929 46.0931 58.2929C43.097 58.2929 39.4863 58.2929 39.4863 58.2929C39.3034 58.2929 39.1251 58.3509 38.9771 58.4584C38.9771 58.4584 36.0559 60.5807 33.632 62.3417C32.035 63.5022 29.8724 63.5022 28.2751 62.3417C25.8512 60.5807 22.9301 58.4584 22.9301 58.4584C22.7821 58.3509 22.6039 58.2929 22.421 58.2929C22.421 58.2929 18.8104 58.2929 15.8142 58.2929C13.8399 58.2929 12.0903 57.0218 11.4802 55.1442C10.5544 52.2947 9.43859 48.8608 9.43859 48.8608C9.38226 48.6868 9.27209 48.5351 9.12409 48.4276C9.12409 48.4276 6.20296 46.3053 3.77905 44.5443C2.18181 43.384 1.51353 41.3272 2.12361 39.4495C3.04944 36.6001 4.16526 33.166 4.16526 33.166C4.2218 32.9922 4.2218 32.8047 4.16526 32.6307C4.16526 32.6307 3.04944 29.1968 2.12361 26.3473C1.51353 24.4697 2.18181 22.4129 3.77905 21.2526C6.20296 19.4913 9.12409 17.369 9.12409 17.369C9.27209 17.2616 9.38226 17.11 9.43859 16.936C9.43859 16.936 10.5544 13.5021 11.4802 10.6525C12.0903 8.77505 13.8399 7.50375 15.8142 7.50375H22.421C22.6039 7.50375 22.7821 7.44596 22.9301 7.33849L28.2751 3.45495Z" fill="#0B0C59"/>
<path fill-rule="evenodd" clip-rule="evenodd" d="M22.2716 25.0332C23.7042 29.3601 27.9081 32.2782 32.9532 30.9848C36.7411 30.0139 39.2367 27.3482 40.8487 24.4757C43.1964 20.2924 43.647 15.6992 43.647 15.6992C43.6782 15.3831 43.5337 15.0752 43.2706 14.8973C43.0074 14.7192 42.668 14.6994 42.3859 14.8458C39.3685 16.4126 36.8293 16.074 34.3536 15.7277C32.5104 15.4696 30.6966 15.2062 28.7743 15.519C25.638 16.0293 23.572 18.2751 22.6321 20.6119C21.9856 22.2191 21.8848 23.865 22.2714 25.0332H22.2716ZM23.9158 24.4888C23.6329 23.6337 23.766 22.4345 24.2391 21.2584C24.9787 19.42 26.585 17.6301 29.0524 17.2287C31.263 16.8689 33.3155 17.3759 35.4623 17.6181C37.4152 17.8384 39.4363 17.8667 41.6814 17.047C41.3711 18.6254 40.6999 21.2012 39.3382 23.6281C37.9407 26.1181 35.807 28.4651 32.5231 29.3069C28.4533 30.3502 25.0716 27.9791 23.916 24.4888H23.9158Z" fill="#0B0C59"/>
<path fill-rule="evenodd" clip-rule="evenodd" d="M15.4971 23.8829C18.3376 24.9817 20.9507 25.5001 23.3208 25.6225C29.1636 25.925 33.5431 23.8255 36.2437 21.9793C36.6383 21.7095 36.7397 21.17 36.4699 20.7755C36.2001 20.3808 35.6607 20.2796 35.2661 20.5494C32.7884 22.2433 28.7708 24.17 23.4101 23.8927C21.2022 23.7785 18.7685 23.2909 16.122 22.2674C15.6763 22.0948 15.1743 22.3168 15.0018 22.7627C14.8295 23.2086 15.0513 23.7106 15.4971 23.8829Z" fill="#0B0C59"/>
<path fill-rule="evenodd" clip-rule="evenodd" d="M11.6824 40.3768L14.1822 39.0743V48.4339C14.1822 48.9119 14.5703 49.3 15.0482 49.3C15.5263 49.3 15.9143 48.9119 15.9143 48.4339V37.6465C15.9143 37.3438 15.7564 37.063 15.4974 36.9061C15.2386 36.7489 14.9166 36.7385 14.648 36.8784L10.8819 38.8405C10.4581 39.0614 10.2933 39.5848 10.514 40.0087C10.735 40.4327 11.2584 40.5975 11.6824 40.3768Z" fill="#0B0C59"/>
<path fill-rule="evenodd" clip-rule="evenodd" d="M48.525 37.5831L40.6845 47.4265C40.3868 47.8005 40.4486 48.3459 40.8225 48.6438C41.1963 48.9415 41.7417 48.8797 42.0396 48.5058L49.8798 38.6623C50.1777 38.2884 50.116 37.7431 49.742 37.4453C49.3681 37.1474 48.8226 37.2093 48.525 37.5831Z" fill="#0B0C59"/>
<path fill-rule="evenodd" clip-rule="evenodd" d="M41.9485 36.7256C40.857 36.7256 39.9707 37.612 39.9707 38.7035C39.9707 39.795 40.857 40.6813 41.9485 40.6813C43.04 40.6813 43.9264 39.795 43.9264 38.7035C43.9264 37.612 43.04 36.7256 41.9485 36.7256ZM41.9485 38.458C42.0841 38.458 42.194 38.568 42.194 38.7035C42.194 38.839 42.0841 38.949 41.9485 38.949C41.813 38.949 41.7031 38.839 41.7031 38.7035C41.7031 38.568 41.813 38.458 41.9485 38.458Z" fill="#0B0C59"/>
<path fill-rule="evenodd" clip-rule="evenodd" d="M48.4285 45.2284C47.337 45.2284 46.4507 46.1145 46.4507 47.206C46.4507 48.2977 47.337 49.1838 48.4285 49.1838C49.52 49.1838 50.4064 48.2977 50.4064 47.206C50.4064 46.1145 49.52 45.2284 48.4285 45.2284ZM48.4285 46.9605C48.5641 46.9605 48.674 47.0705 48.674 47.206C48.674 47.3415 48.5641 47.4517 48.4285 47.4517C48.293 47.4517 48.183 47.3415 48.183 47.206C48.183 47.0705 48.293 46.9605 48.4285 46.9605Z" fill="#0B0C59"/>
<path fill-rule="evenodd" clip-rule="evenodd" d="M26.4297 45.2641V40.8162C26.4297 38.5873 24.6228 36.7803 22.3938 36.7803C22.3938 36.7803 22.3938 36.7803 22.3936 36.7803C20.1649 36.7803 18.3579 38.5873 18.3579 40.8162V45.2641C18.3579 47.4931 20.1649 49.3 22.3936 49.3H22.3938C24.6228 49.3 26.4297 47.4931 26.4297 45.2641ZM24.6974 40.8162V45.2641C24.6974 46.5365 23.6662 47.5679 22.3938 47.5679H22.3936C21.1215 47.5679 20.0901 46.5365 20.0901 45.2643C20.0901 45.2641 20.0901 40.8162 20.0901 40.8162C20.0901 39.5439 21.1215 38.5127 22.3936 38.5127H22.3938C23.6662 38.5127 24.6974 39.5439 24.6974 40.8162Z" fill="#0B0C59"/>
<path fill-rule="evenodd" clip-rule="evenodd" d="M36.9454 45.2641V40.8162C36.9454 38.5873 35.1386 36.7803 32.9097 36.7803H32.9094C30.6805 36.7803 28.8737 38.5873 28.8735 40.8162V45.2641C28.8737 47.4931 30.6805 49.3 32.9094 49.3H32.9097C35.1386 49.3 36.9454 47.4931 36.9454 45.2641ZM35.2132 40.8162V45.2641C35.2132 46.5365 34.1818 47.5679 32.9097 47.5679H32.9094C31.6373 47.5679 30.6059 46.5365 30.6059 45.2643C30.6059 45.2641 30.6059 40.8162 30.6059 40.8162C30.6059 39.5439 31.6373 38.5127 32.9094 38.5127H32.9097C34.1818 38.5127 35.2132 39.5439 35.2132 40.8162Z" fill="#0B0C59"/>
</svg>
