<svg width="74" height="75" viewBox="0 0 74 75" fill="none" xmlns="http://www.w3.org/2000/svg">
<g clip-path="url(#clip0_0_116)">
<path fill-rule="evenodd" clip-rule="evenodd" d="M20.1142 32.2025C16.1741 32.2025 12.9697 35.4068 12.9697 39.3466L12.9699 66.1849C12.9699 70.1247 16.1741 73.329 20.1138 73.329H37.0111C40.9506 73.329 44.155 70.1247 44.155 66.1849L44.1553 39.3466C44.1553 35.4068 40.9506 32.2025 37.0109 32.2025H20.1142ZM37.0111 74.9448H20.1142C15.2838 74.9448 11.354 71.0149 11.354 66.1849V39.3466C11.354 34.5164 15.2838 30.5868 20.1138 30.5868H37.0111C41.8409 30.5868 45.7707 34.5164 45.7707 39.3466V66.1849C45.7707 71.0149 41.8409 74.9448 37.0111 74.9448Z" fill="#0B0C59"/>
<path fill-rule="evenodd" clip-rule="evenodd" d="M20.8833 46.8847C19.8078 46.8847 18.9325 47.7599 18.9325 48.8352L18.9328 56.6964C18.9328 57.7717 19.8077 58.6469 20.8831 58.6469H36.242C37.3174 58.6469 38.1923 57.7717 38.1923 56.6964L38.1926 48.8352C38.1926 47.7597 37.3172 46.8847 36.2418 46.8847H20.8833ZM36.242 60.2624H20.8833C18.9176 60.2624 17.3169 58.6621 17.3169 56.6964L17.3171 48.8352C17.3171 46.8695 18.9174 45.2691 20.8831 45.2691H36.242C38.2076 45.2691 39.808 46.8695 39.808 48.8352L39.8084 56.6964C39.8084 58.6621 38.2075 60.2624 36.242 60.2624Z" fill="#0B0C59"/>
<path fill-rule="evenodd" clip-rule="evenodd" d="M35.367 32.2025C34.9209 32.2025 34.5588 31.8406 34.5588 31.3946V16.7747H22.5646V31.3946C22.5646 31.8406 22.2043 32.2025 21.7567 32.2025C21.311 32.2025 20.9487 31.8406 20.9487 31.3946L20.9489 15.9669C20.9489 15.5209 21.3106 15.159 21.7567 15.159H35.367C35.8146 15.159 36.1746 15.5209 36.1746 15.9669L36.1747 31.3946C36.1747 31.8406 35.8144 32.2025 35.367 32.2025Z" fill="#0B0C59"/>
<path fill-rule="evenodd" clip-rule="evenodd" d="M35.3685 21.9179H21.757C21.311 21.9179 20.9487 21.556 20.9487 21.11C20.9489 20.6624 21.3106 20.3022 21.7567 20.3022H35.3685C35.8146 20.3022 36.1763 20.6624 36.1763 21.11C36.1763 21.556 35.8144 21.9179 35.3685 21.9179Z" fill="#0B0C59"/>
<path fill-rule="evenodd" clip-rule="evenodd" d="M35.3685 27.0593H21.757C21.311 27.0593 20.9487 26.6976 20.9487 26.2515C20.9489 25.8055 21.3106 25.4437 21.7567 25.4437H35.3685C35.8146 25.4437 36.1763 25.8055 36.1763 26.2515C36.1763 26.6976 35.8144 27.0593 35.3685 27.0593Z" fill="#0B0C59"/>
<path fill-rule="evenodd" clip-rule="evenodd" d="M44.559 18.6108C44.2023 18.6126 43.8757 18.3736 43.7781 18.0134L40.7927 6.86878C40.4191 5.4736 40.4928 4.18101 41.0061 3.13099C41.5061 2.11102 42.3964 1.38398 43.5138 1.08456C44.6331 0.784796 45.7673 0.970013 46.7098 1.60282C47.6792 2.25407 48.3894 3.33789 48.763 4.73307L51.7487 15.8777C51.865 16.3085 51.6089 16.7512 51.178 16.8655C50.7475 16.9818 50.3045 16.7259 50.1884 16.295L47.2028 5.15045C46.932 4.13731 46.4489 3.37493 45.8076 2.94424C45.2508 2.56885 44.6027 2.46626 43.9329 2.64635C43.2632 2.82474 42.7531 3.23871 42.457 3.84113C42.1188 4.53454 42.0816 5.43655 42.3542 6.4497L45.3399 17.5943C45.4546 18.0252 45.1985 18.4678 44.7676 18.5839C44.6987 18.6023 44.6278 18.6108 44.559 18.6108Z" fill="#0B0C59"/>
<path fill-rule="evenodd" clip-rule="evenodd" d="M44.249 17.887H44.2509H44.249ZM52.2803 16.6788C52.0211 16.6788 51.7535 16.7124 51.4875 16.7831L44.4581 18.6663C43.1888 19.0079 42.3305 20.0968 42.5846 21.0461L43.9011 25.9603L55.6159 22.82L54.3001 17.9057C54.0997 17.1568 53.253 16.6788 52.2803 16.6788ZM43.3305 27.7561C43.1888 27.7561 43.0491 27.7208 42.9262 27.6484C42.7396 27.5407 42.6048 27.3655 42.5493 27.1586L41.0228 21.4635C40.5351 19.6375 41.8878 17.6836 44.0404 17.1062L51.0684 15.223C53.2227 14.6457 55.3718 15.6622 55.8615 17.4883L57.3864 23.1819C57.5024 23.6125 57.2466 24.0569 56.8158 24.1713L43.5391 27.7291C43.4701 27.7476 43.3991 27.7561 43.3305 27.7561Z" fill="#0B0C59"/>
<path fill-rule="evenodd" clip-rule="evenodd" d="M58.4167 57.5076C58.1674 57.5076 57.9284 57.393 57.7736 57.1894L53.5947 51.6979C53.536 51.6189 53.4921 51.5313 53.4634 51.4388L45.9827 26.2599C45.8549 25.8324 46.0988 25.3831 46.5263 25.2568C46.9556 25.1289 47.4049 25.373 47.531 25.8005L54.9701 50.8362L57.8646 54.6414L58.4689 49.8988L52.3933 24.4978C52.2905 24.0636 52.558 23.6277 52.9906 23.5234C53.425 23.4207 53.8607 23.6883 53.965 24.1226L60.0746 49.6665C60.098 49.7609 60.1027 49.8601 60.091 49.956L59.2176 56.8024C59.1755 57.1272 58.9416 57.3964 58.6251 57.4806C58.5563 57.499 58.4855 57.5076 58.4167 57.5076Z" fill="#0B0C59"/>
<path fill-rule="evenodd" clip-rule="evenodd" d="M58.4083 64.6737C58.3644 64.7611 58.3188 64.8503 58.2734 64.9412C57.4151 66.646 55.6293 70.1936 55.8111 71.1697H55.8115C56.0455 72.4219 57.1408 73.329 58.4165 73.329C59.7075 73.329 60.8045 72.4086 61.0266 71.1395C61.1734 70.2964 59.4313 66.7537 58.5949 65.0506C58.531 64.9227 58.4685 64.7964 58.4083 64.6737ZM58.4166 74.9447C56.3635 74.9447 54.6012 73.4821 54.2241 71.4676H54.2244C53.9615 70.0658 55.1935 67.4673 56.8311 64.2141C57.1879 63.5055 57.4958 62.8913 57.6759 62.4823C57.8055 62.1895 58.095 61.9994 58.4165 61.9994C58.7362 61.9994 59.0272 62.1895 59.1553 62.4823C59.3572 62.9418 59.6753 63.5881 60.0438 64.3386C61.6898 67.6861 62.8391 70.1534 62.6187 71.4173C62.2604 73.462 60.4931 74.9447 58.4166 74.9447Z" fill="#0B0C59"/>
</g>
<defs>
<clipPath id="clip0_0_116">
<rect width="74" height="74" fill="white" transform="translate(0 0.94458)"/>
</clipPath>
</defs>
</svg>
