<svg width="74" height="75" viewBox="0 0 74 75" fill="none" xmlns="http://www.w3.org/2000/svg">
<path d="M73.1328 43.5273H0.867188C0.637195 43.5273 0.416623 43.4359 0.253993 43.2733C0.0913641 43.1106 0 42.8901 0 42.6601C0 42.4301 0.0913641 42.2095 0.253993 42.0469C0.416623 41.8842 0.637195 41.7929 0.867188 41.7929H73.1328C73.3628 41.7929 73.5834 41.8842 73.746 42.0469C73.9086 42.2095 74 42.4301 74 42.6601C74 42.8901 73.9086 43.1106 73.746 43.2733C73.5834 43.4359 73.3628 43.5273 73.1328 43.5273Z" fill="#0B0C59"/>
<path d="M73.1328 52.7773H0.867188C0.637195 52.7773 0.416623 52.6859 0.253993 52.5233C0.0913641 52.3606 0 52.1401 0 51.9101C0 51.6801 0.0913641 51.4595 0.253993 51.2969C0.416623 51.1342 0.637195 51.0429 0.867188 51.0429H73.1328C73.3628 51.0429 73.5834 51.1342 73.746 51.2969C73.9086 51.4595 74 51.6801 74 51.9101C74 52.1401 73.9086 52.3606 73.746 52.5233C73.5834 52.6859 73.3628 52.7773 73.1328 52.7773Z" fill="#0B0C59"/>
<path d="M9.23633 65.0826C8.55028 65.0826 7.87963 64.8792 7.3092 64.4981C6.73876 64.1169 6.29416 63.5752 6.03162 62.9413C5.76908 62.3075 5.70039 61.61 5.83423 60.9372C5.96807 60.2643 6.29844 59.6462 6.78355 59.1611C7.26867 58.676 7.88674 58.3456 8.55961 58.2118C9.23248 58.078 9.92993 58.1466 10.5638 58.4092C11.1976 58.6717 11.7393 59.1163 12.1205 59.6868C12.5016 60.2572 12.7051 60.9278 12.7051 61.6139C12.7042 62.5336 12.3385 63.4154 11.6882 64.0657C11.0378 64.7161 10.156 65.0818 9.23633 65.0826ZM9.23633 59.8813C8.8933 59.8813 8.55798 59.983 8.27276 60.1735C7.98755 60.3641 7.76525 60.635 7.63398 60.9519C7.50271 61.2688 7.46836 61.6176 7.53528 61.954C7.6022 62.2904 7.76738 62.5995 8.00994 62.842C8.2525 63.0846 8.56153 63.2498 8.89797 63.3167C9.23441 63.3836 9.58313 63.3493 9.90005 63.218C10.217 63.0867 10.4878 62.8644 10.6784 62.5792C10.869 62.294 10.9707 61.9587 10.9707 61.6156C10.9707 61.1556 10.788 60.7145 10.4627 60.3892C10.1375 60.064 9.69631 59.8813 9.23633 59.8813Z" fill="#0B0C59"/>
<path d="M18.5 73.8779C17.8139 73.8779 17.1433 73.6745 16.5729 73.2933C16.0024 72.9122 15.5578 72.3704 15.2953 71.7366C15.0328 71.1028 14.9641 70.4053 15.0979 69.7325C15.2317 69.0596 15.5621 68.4415 16.0472 67.9564C16.5323 67.4713 17.1504 67.1409 17.8233 67.0071C18.4962 66.8732 19.1936 66.9419 19.8274 67.2045C20.4613 67.467 21.003 67.9116 21.3842 68.482C21.7653 69.0525 21.9688 69.7231 21.9688 70.4092C21.9679 71.3289 21.6022 72.2107 20.9518 72.861C20.3015 73.5114 19.4197 73.8771 18.5 73.8779ZM18.5 68.6748C18.157 68.6748 17.8217 68.7765 17.5364 68.9671C17.2512 69.1577 17.0289 69.4286 16.8976 69.7455C16.7664 70.0624 16.732 70.4111 16.799 70.7475C16.8659 71.084 17.0311 71.393 17.2736 71.6356C17.5162 71.8781 17.8252 72.0433 18.1616 72.1102C18.4981 72.1772 18.8468 72.1428 19.1637 72.0115C19.4806 71.8803 19.7515 71.658 19.9421 71.3727C20.1327 71.0875 20.2344 70.7522 20.2344 70.4092C20.234 69.9494 20.0511 69.5087 19.7259 69.1837C19.4007 68.8588 18.9597 68.6763 18.5 68.6763V68.6748Z" fill="#0B0C59"/>
<path d="M37 73.8779C36.3139 73.8779 35.6433 73.6745 35.0729 73.2933C34.5024 72.9122 34.0578 72.3704 33.7953 71.7366C33.5328 71.1028 33.4641 70.4053 33.5979 69.7325C33.7317 69.0596 34.0621 68.4415 34.5472 67.9564C35.0323 67.4713 35.6504 67.1409 36.3233 67.0071C36.9962 66.8732 37.6936 66.9419 38.3274 67.2045C38.9613 67.467 39.503 67.9116 39.8842 68.482C40.2653 69.0525 40.4688 69.7231 40.4688 70.4092C40.4679 71.3289 40.1022 72.2107 39.4519 72.861C38.8015 73.5114 37.9197 73.8771 37 73.8779ZM37 68.6748C36.657 68.6748 36.3217 68.7765 36.0364 68.9671C35.7512 69.1577 35.5289 69.4286 35.3976 69.7455C35.2664 70.0624 35.232 70.4111 35.299 70.7475C35.3659 71.084 35.5311 71.393 35.7736 71.6356C36.0162 71.8781 36.3252 72.0433 36.6616 72.1102C36.9981 72.1772 37.3468 72.1428 37.6637 72.0115C37.9806 71.8803 38.2515 71.658 38.4421 71.3727C38.6327 71.0875 38.7344 70.7522 38.7344 70.4092C38.734 69.9494 38.5511 69.5087 38.2259 69.1837C37.9007 68.8588 37.4597 68.6763 37 68.6763V68.6748Z" fill="#0B0C59"/>
<path d="M55.5 73.8779C54.8139 73.8779 54.1433 73.6745 53.5729 73.2933C53.0024 72.9122 52.5578 72.3704 52.2953 71.7366C52.0328 71.1028 51.9641 70.4053 52.0979 69.7325C52.2317 69.0596 52.5621 68.4415 53.0472 67.9564C53.5323 67.4713 54.1504 67.1409 54.8233 67.0071C55.4962 66.8732 56.1936 66.9419 56.8274 67.2045C57.4613 67.467 58.003 67.9116 58.3842 68.482C58.7653 69.0525 58.9688 69.7231 58.9688 70.4092C58.9679 71.3289 58.6022 72.2107 57.9518 72.861C57.3015 73.5114 56.4197 73.8771 55.5 73.8779ZM55.5 68.6748C55.157 68.6748 54.8217 68.7765 54.5364 68.9671C54.2512 69.1577 54.0289 69.4286 53.8976 69.7455C53.7664 70.0624 53.732 70.4111 53.799 70.7475C53.8659 71.084 54.0311 71.393 54.2736 71.6356C54.5162 71.8781 54.8252 72.0433 55.1616 72.1102C55.4981 72.1772 55.8468 72.1428 56.1637 72.0115C56.4806 71.8803 56.7515 71.658 56.9421 71.3727C57.1327 71.0875 57.2344 70.7522 57.2344 70.4092C57.234 69.9494 57.0511 69.5087 56.7259 69.1837C56.4007 68.8588 55.9597 68.6763 55.5 68.6763V68.6748Z" fill="#0B0C59"/>
<path d="M27.75 65.0826C27.0639 65.0826 26.3933 64.8792 25.8229 64.4981C25.2524 64.1169 24.8078 63.5752 24.5453 62.9413C24.2828 62.3075 24.2141 61.61 24.3479 60.9372C24.4817 60.2643 24.8121 59.6462 25.2972 59.1611C25.7823 58.676 26.4004 58.3456 27.0733 58.2118C27.7462 58.078 28.4436 58.1466 29.0774 58.4092C29.7113 58.6717 30.253 59.1163 30.6342 59.6868C31.0153 60.2572 31.2188 60.9278 31.2188 61.6139C31.2179 62.5336 30.8522 63.4154 30.2018 64.0657C29.5515 64.7161 28.6697 65.0818 27.75 65.0826ZM27.75 59.8813C27.407 59.8813 27.0717 59.983 26.7864 60.1735C26.5012 60.3641 26.2789 60.635 26.1476 60.9519C26.0164 61.2688 25.982 61.6176 26.049 61.954C26.1159 62.2904 26.2811 62.5995 26.5236 62.842C26.7662 63.0846 27.0752 63.2498 27.4116 63.3167C27.7481 63.3836 28.0968 63.3493 28.4137 63.218C28.7306 63.0867 29.0015 62.8644 29.1921 62.5792C29.3827 62.294 29.4844 61.9587 29.4844 61.6156C29.4844 61.1556 29.3016 60.7145 28.9764 60.3892C28.6511 60.064 28.21 59.8813 27.75 59.8813Z" fill="#0B0C59"/>
<path d="M46.2637 65.0826C45.5776 65.0826 44.907 64.8792 44.3365 64.4981C43.7661 64.1169 43.3215 63.5752 43.059 62.9413C42.7964 62.3075 42.7277 61.61 42.8616 60.9372C42.9954 60.2643 43.3258 59.6462 43.8109 59.1611C44.296 58.676 44.9141 58.3456 45.587 58.2118C46.2598 58.078 46.9573 58.1466 47.5911 58.4092C48.2249 58.6717 48.7667 59.1163 49.1478 59.6868C49.529 60.2572 49.7324 60.9278 49.7324 61.6139C49.7316 62.5336 49.3659 63.4154 48.7155 64.0657C48.0652 64.7161 47.1834 65.0818 46.2637 65.0826ZM46.2637 59.8813C45.9206 59.8813 45.5853 59.983 45.3001 60.1735C45.0149 60.3641 44.7926 60.635 44.6613 60.9519C44.5301 61.2688 44.4957 61.6176 44.5626 61.954C44.6295 62.2904 44.7947 62.5995 45.0373 62.842C45.2798 63.0846 45.5889 63.2498 45.9253 63.3167C46.2617 63.3836 46.6105 63.3493 46.9274 63.218C47.2443 63.0867 47.5152 62.8644 47.7058 62.5792C47.8963 62.294 47.998 61.9587 47.998 61.6156C47.998 61.1556 47.8153 60.7145 47.4901 60.3892C47.1648 60.064 46.7237 59.8813 46.2637 59.8813Z" fill="#0B0C59"/>
<path d="M64.7788 65.0826C64.0928 65.0826 63.4221 64.8792 62.8517 64.4981C62.2812 64.1169 61.8366 63.5752 61.5741 62.9413C61.3116 62.3075 61.2429 61.61 61.3767 60.9372C61.5106 60.2643 61.8409 59.6462 62.326 59.1611C62.8111 58.676 63.4292 58.3456 64.1021 58.2118C64.775 58.078 65.4724 58.1466 66.1062 58.4092C66.7401 58.6717 67.2818 59.1163 67.663 59.6868C68.0441 60.2572 68.2476 60.9278 68.2476 61.6139C68.2467 62.5336 67.881 63.4154 67.2307 64.0657C66.5803 64.7161 65.6985 65.0818 64.7788 65.0826ZM64.7788 59.8813C64.4358 59.8813 64.1005 59.983 63.8152 60.1735C63.53 60.3641 63.3077 60.635 63.1765 60.9519C63.0452 61.2688 63.0108 61.6176 63.0778 61.954C63.1447 62.2904 63.3099 62.5995 63.5524 62.842C63.795 63.0846 64.104 63.2498 64.4404 63.3167C64.7769 63.3836 65.1256 63.3493 65.4425 63.218C65.7594 63.0867 66.0303 62.8644 66.2209 62.5792C66.4115 62.294 66.5132 61.9587 66.5132 61.6156C66.5132 61.1556 66.3305 60.7145 66.0052 60.3892C65.6799 60.064 65.2388 59.8813 64.7788 59.8813Z" fill="#0B0C59"/>
<path d="M14.2538 36.9172C14.064 36.9173 13.8794 36.8552 13.7284 36.7403C13.5773 36.6255 13.4681 36.4642 13.4175 36.2813L13.4146 36.2709C13.4117 36.2628 13.4091 36.2533 13.4059 36.242C13.3019 35.9104 12.4841 33.5014 10.3881 32.3593C9.04658 31.6283 7.41627 31.5499 5.54256 32.1217C5.43296 32.1577 5.31729 32.1715 5.2023 32.1622C5.08731 32.1529 4.97533 32.1208 4.87291 32.0677C4.7705 32.0146 4.6797 31.9417 4.60584 31.853C4.53198 31.7644 4.47654 31.662 4.44277 31.5517C4.409 31.4414 4.39758 31.3254 4.40918 31.2106C4.42077 31.0959 4.45515 30.9846 4.5103 30.8832C4.56545 30.7819 4.64026 30.6926 4.73035 30.6206C4.82044 30.5485 4.924 30.4952 5.03497 30.4636C6.90867 29.8901 8.21466 28.9114 8.91708 27.5545C10.0918 25.2859 9.24054 22.6341 9.23187 22.6075C9.19706 22.498 9.18435 22.3828 9.19446 22.2684C9.20456 22.154 9.2373 22.0427 9.29076 21.9411C9.34421 21.8394 9.41733 21.7494 9.50586 21.6762C9.5944 21.6031 9.69658 21.5482 9.80648 21.5149C9.91638 21.4815 10.0318 21.4703 10.1461 21.482C10.2603 21.4936 10.3711 21.5278 10.4721 21.5826C10.573 21.6374 10.6621 21.7117 10.734 21.8012C10.806 21.8907 10.8595 21.9936 10.8914 22.1039C10.8983 22.1288 11.6773 24.8026 13.9208 26.0251C15.262 26.7553 16.8923 26.8345 18.7657 26.2621C18.8752 26.2264 18.9908 26.2129 19.1055 26.2224C19.2203 26.2319 19.3321 26.2641 19.4343 26.3172C19.5364 26.3703 19.627 26.4432 19.7007 26.5317C19.7744 26.6203 19.8298 26.7226 19.8635 26.8327C19.8972 26.9428 19.9087 27.0585 19.8972 27.1731C19.8857 27.2877 19.8515 27.3989 19.7966 27.5001C19.7417 27.6014 19.6672 27.6906 19.5774 27.7628C19.4876 27.8349 19.3843 27.8884 19.2736 27.9202C17.3999 28.494 16.0939 29.4727 15.3915 30.8296C14.2853 32.9661 14.9758 35.4424 15.0675 35.746L15.0709 35.7575L15.077 35.7766C15.1203 35.907 15.132 36.0457 15.1112 36.1815C15.0904 36.3173 15.0376 36.4462 14.9572 36.5576C14.8768 36.669 14.7711 36.7596 14.6488 36.8222C14.5265 36.8847 14.3911 36.9173 14.2538 36.9172ZM9.1411 30.1156C9.87459 30.2416 10.582 30.4888 11.2342 30.8472C11.9423 31.2401 12.58 31.7481 13.1212 32.3503C13.2325 31.5483 13.4767 30.7703 13.8439 30.0485C14.1839 29.3865 14.6315 28.7855 15.1686 28.2702C14.4348 28.1441 13.727 27.8968 13.0744 27.5383C12.3661 27.1456 11.7281 26.6376 11.1868 26.0352C11.0755 26.8374 10.8312 27.6154 10.4641 28.3373C10.1245 28.9992 9.67746 29.6001 9.1411 30.1156Z" fill="#0B0C59"/>
<path d="M52.5665 37.1366C52.4398 37.1368 52.3146 37.1091 52.1997 37.0556C52.0848 37.0021 51.9831 36.9241 51.9016 36.8271C51.8201 36.73 51.7609 36.6163 51.7281 36.4939C51.6953 36.3715 51.6897 36.2434 51.7118 36.1186C51.7141 36.1041 52.0008 34.3142 51.0371 32.9854C50.4642 32.1963 49.5357 31.7008 48.2777 31.5129C48.0724 31.4823 47.8849 31.379 47.7492 31.2218C47.6136 31.0647 47.5389 30.864 47.5386 30.6564C47.5386 30.6132 47.5418 30.57 47.5481 30.5272C47.5649 30.4146 47.6038 30.3063 47.6624 30.2087C47.7211 30.1111 47.7984 30.0259 47.89 29.9582C47.9815 29.8904 48.0855 29.8414 48.1961 29.8138C48.3066 29.7863 48.4215 29.7808 48.5341 29.7976C49.7973 29.9855 50.8336 29.7812 51.6132 29.188C52.9105 28.2009 53.1617 26.413 53.1637 26.3965C53.1806 26.2839 53.2195 26.1757 53.2781 26.078C53.3368 25.9804 53.4142 25.8953 53.5057 25.8276C53.5973 25.7598 53.7013 25.7108 53.8118 25.6833C53.9224 25.6557 54.0372 25.6502 54.1499 25.6671C54.2625 25.6839 54.3707 25.7228 54.4684 25.7815C54.566 25.8402 54.6511 25.9175 54.7188 26.0091C54.7866 26.1006 54.8356 26.2047 54.8631 26.3152C54.8907 26.4257 54.8962 26.5406 54.8793 26.6532C54.8767 26.6674 54.5903 28.457 55.554 29.7858C56.1266 30.5749 57.0551 31.0704 58.3131 31.2583C58.5185 31.2889 58.706 31.3921 58.8417 31.5493C58.9774 31.7065 59.0522 31.9071 59.0525 32.1148C59.0525 32.158 59.0492 32.2012 59.0427 32.244C59.0087 32.4714 58.8858 32.6761 58.7009 32.8129C58.5161 32.9497 58.2844 33.0075 58.057 32.9736C56.7935 32.7848 55.7572 32.99 54.9776 33.5832C53.6806 34.5704 53.4294 36.3582 53.4274 36.3747C53.4017 36.5849 53.2999 36.7784 53.1413 36.9188C52.9828 37.0592 52.7783 37.1367 52.5665 37.1366ZM51.6895 31.1455C51.9753 31.3946 52.2313 31.6759 52.4523 31.9838C52.6926 32.3191 52.8915 32.6822 53.0446 33.0652C53.3032 32.7437 53.5996 32.4546 53.9274 32.2041C54.2285 31.9741 54.5555 31.7801 54.9016 31.626C54.6158 31.3769 54.3598 31.0956 54.1387 30.7877C53.8983 30.4524 53.6994 30.0893 53.5462 29.7063C53.2878 30.0278 52.9914 30.317 52.6637 30.5674C52.3625 30.7972 52.0355 30.9913 51.6895 31.1455Z" fill="#0B0C59"/>
<path d="M36.5084 17.474C36.3873 17.4742 36.2674 17.4489 36.1567 17.4C36.0459 17.351 35.9466 17.2793 35.8652 17.1896C35.7838 17.0999 35.7221 16.9941 35.6841 16.8791C35.646 16.7641 35.6325 16.6424 35.6444 16.5219V16.5138C35.6444 16.5045 35.6444 16.4944 35.6467 16.4849C35.6681 16.1516 35.7667 13.7264 34.295 11.9917C33.3533 10.8814 31.9299 10.2507 30.0646 10.1174C29.846 10.1018 29.6414 10.0039 29.492 9.8436C29.3426 9.68325 29.2594 9.47228 29.2593 9.25311C29.2593 9.2323 29.2593 9.21148 29.2613 9.19038C29.2689 9.07661 29.2989 8.96546 29.3497 8.86338C29.4005 8.76129 29.471 8.67028 29.5572 8.5956C29.6434 8.52093 29.7435 8.46408 29.8518 8.42834C29.9601 8.3926 30.0743 8.37867 30.188 8.38737C32.0542 8.52149 33.5524 8.0983 34.6431 7.13428C36.3589 5.61584 36.5977 3.17788 36.6211 2.87061V2.855V2.83881C36.6378 2.60939 36.745 2.39601 36.919 2.24561C37.0052 2.17113 37.1052 2.11436 37.2133 2.07854C37.3214 2.04271 37.4356 2.02853 37.5492 2.03681C37.6628 2.04508 37.7736 2.07565 37.8754 2.12677C37.9772 2.17789 38.0679 2.24855 38.1424 2.33472C38.2168 2.4209 38.2736 2.5209 38.3094 2.62902C38.3453 2.73713 38.3594 2.85125 38.3512 2.96484V2.97294C38.3512 2.98219 38.3512 2.9923 38.3489 3.00329C38.3275 3.33687 38.2289 5.76181 39.7005 7.49648C40.6423 8.60676 42.0656 9.2375 43.9309 9.37105C44.1495 9.38668 44.354 9.48446 44.5034 9.64475C44.6528 9.80504 44.736 10.0159 44.7363 10.2351C44.7363 10.2559 44.7363 10.2767 44.7342 10.2978C44.7264 10.4115 44.6962 10.5225 44.6453 10.6244C44.5944 10.7264 44.5239 10.8173 44.4378 10.8919C44.3517 10.9665 44.2517 11.0234 44.1435 11.0593C44.0353 11.0951 43.9211 11.1092 43.8075 11.1008C41.9413 10.9678 40.4431 11.3899 39.3525 12.3539C37.6366 13.8723 37.3978 16.3103 37.3744 16.6176V16.6332V16.6494C37.363 16.8715 37.2668 17.0808 37.1057 17.2342C36.9446 17.3876 36.7308 17.4735 36.5084 17.474ZM34.0597 9.53234C34.6525 9.89514 35.1829 10.3512 35.6305 10.8828C36.1155 11.4632 36.5033 12.1183 36.7787 12.8227C37.1517 12.1648 37.6289 11.5715 38.1916 11.0661C38.7104 10.6037 39.3004 10.2278 39.9387 9.95293C39.3459 9.59014 38.8155 9.13411 38.3679 8.60243C37.8829 8.02208 37.4952 7.36695 37.2198 6.66253C36.8467 7.3205 36.3695 7.91372 35.8068 8.41916C35.2882 8.88153 34.6979 9.2574 34.0597 9.53234Z" fill="#0B0C59"/>
<path d="M14.6688 13.4003H12.915C12.685 13.4003 12.4645 13.3089 12.3018 13.1463C12.1392 12.9836 12.0479 12.7631 12.0479 12.5331C12.0479 12.3031 12.1392 12.0825 12.3018 11.9199C12.4645 11.7573 12.685 11.6659 12.915 11.6659H14.6688C14.8988 11.6659 15.1193 11.7573 15.282 11.9199C15.4446 12.0825 15.536 12.3031 15.536 12.5331C15.536 12.7631 15.4446 12.9836 15.282 13.1463C15.1193 13.3089 14.8988 13.4003 14.6688 13.4003Z" fill="#0B0C59"/>
<path d="M16.4478 16.9297C16.2178 16.9297 15.9972 16.8384 15.8346 16.6757C15.6719 16.5131 15.5806 16.2925 15.5806 16.0625V14.3097C15.5806 14.0797 15.6719 13.8591 15.8346 13.6965C15.9972 13.5338 16.2178 13.4425 16.4478 13.4425C16.6777 13.4425 16.8983 13.5338 17.0609 13.6965C17.2236 13.8591 17.3149 14.0797 17.3149 14.3097V16.0625C17.3149 16.2925 17.2236 16.5131 17.0609 16.6757C16.8983 16.8384 16.6777 16.9297 16.4478 16.9297Z" fill="#0B0C59"/>
<path d="M19.9769 13.3994H18.2231C17.9932 13.3994 17.7726 13.308 17.61 13.1454C17.4473 12.9828 17.356 12.7622 17.356 12.5322C17.356 12.3022 17.4473 12.0817 17.61 11.919C17.7726 11.7564 17.9932 11.665 18.2231 11.665H19.9769C20.2069 11.665 20.4275 11.7564 20.5901 11.919C20.7527 12.0817 20.8441 12.3022 20.8441 12.5322C20.8441 12.7622 20.7527 12.9828 20.5901 13.1454C20.4275 13.308 20.2069 13.3994 19.9769 13.3994Z" fill="#0B0C59"/>
<path d="M16.4458 11.6226C16.2158 11.6226 15.9952 11.5312 15.8326 11.3686C15.67 11.2059 15.5786 10.9854 15.5786 10.7554V9.00192C15.5786 8.77193 15.67 8.55136 15.8326 8.38873C15.9952 8.2261 16.2158 8.13474 16.4458 8.13474C16.6758 8.13474 16.8964 8.2261 17.059 8.38873C17.2216 8.55136 17.313 8.77193 17.313 9.00192V10.7554C17.313 10.9854 17.2216 11.2059 17.059 11.3686C16.8964 11.5312 16.6758 11.6226 16.4458 11.6226Z" fill="#0B0C59"/>
<path d="M62.2665 19.3472H60.5801C60.3501 19.3472 60.1295 19.2558 59.9669 19.0932C59.8043 18.9305 59.7129 18.71 59.7129 18.48C59.7129 18.25 59.8043 18.0294 59.9669 17.8668C60.1295 17.7042 60.3501 17.6128 60.5801 17.6128H62.2665C62.4965 17.6128 62.717 17.7042 62.8797 17.8668C63.0423 18.0294 63.1337 18.25 63.1337 18.48C63.1337 18.71 63.0423 18.9305 62.8797 19.0932C62.717 19.2558 62.4965 19.3472 62.2665 19.3472Z" fill="#0B0C59"/>
<path d="M63.9756 22.7422C63.7456 22.7422 63.525 22.6508 63.3624 22.4882C63.1998 22.3256 63.1084 22.105 63.1084 21.875V20.1883C63.1084 19.9583 63.1998 19.7378 63.3624 19.5751C63.525 19.4125 63.7456 19.3211 63.9756 19.3211C64.2056 19.3211 64.4262 19.4125 64.5888 19.5751C64.7514 19.7378 64.8428 19.9583 64.8428 20.1883V21.875C64.8428 22.105 64.7514 22.3256 64.5888 22.4882C64.4262 22.6508 64.2056 22.7422 63.9756 22.7422Z" fill="#0B0C59"/>
<path d="M67.3708 19.3463H65.6841C65.4541 19.3463 65.2335 19.2549 65.0709 19.0923C64.9083 18.9297 64.8169 18.7091 64.8169 18.4791C64.8169 18.2491 64.9083 18.0286 65.0709 17.8659C65.2335 17.7033 65.4541 17.6119 65.6841 17.6119H67.3708C67.6008 17.6119 67.8213 17.7033 67.984 17.8659C68.1466 18.0286 68.2379 18.2491 68.2379 18.4791C68.2379 18.7091 68.1466 18.9297 67.984 19.0923C67.8213 19.2549 67.6008 19.3463 67.3708 19.3463Z" fill="#0B0C59"/>
<path d="M63.9746 17.6379C63.7446 17.6379 63.524 17.5466 63.3614 17.3839C63.1988 17.2213 63.1074 17.0007 63.1074 16.7707V15.0844C63.1074 14.8544 63.1988 14.6338 63.3614 14.4712C63.524 14.3085 63.7446 14.2172 63.9746 14.2172C64.2046 14.2172 64.4252 14.3085 64.5878 14.4712C64.7504 14.6338 64.8418 14.8544 64.8418 15.0844V16.7707C64.8418 17.0007 64.7504 17.2213 64.5878 17.3839C64.4252 17.5466 64.2046 17.6379 63.9746 17.6379Z" fill="#0B0C59"/>
</svg>
