<svg width="19" height="16" viewBox="0 0 19 16" fill="none" xmlns="http://www.w3.org/2000/svg">
<path d="M16.4619 4.59375C17.165 4.06641 17.7979 3.43359 18.29 2.69531C17.6572 2.97656 16.9189 3.1875 16.1807 3.25781C16.9541 2.80078 17.5166 2.09766 17.7979 1.21875C17.0947 1.64062 16.2861 1.95703 15.4775 2.13281C14.7744 1.39453 13.8252 0.972656 12.7705 0.972656C10.7314 0.972656 9.0791 2.625 9.0791 4.66406C9.0791 4.94531 9.11426 5.22656 9.18457 5.50781C6.12598 5.33203 3.38379 3.85547 1.55566 1.64062C1.23926 2.16797 1.06348 2.80078 1.06348 3.50391C1.06348 4.76953 1.69629 5.89453 2.71582 6.5625C2.11816 6.52734 1.52051 6.38672 1.02832 6.10547V6.14062C1.02832 7.93359 2.29395 9.41016 3.98145 9.76172C3.7002 9.83203 3.34863 9.90234 3.03223 9.90234C2.78613 9.90234 2.5752 9.86719 2.3291 9.83203C2.78613 11.3086 4.15723 12.3633 5.77441 12.3984C4.50879 13.3828 2.92676 13.9805 1.2041 13.9805C0.887695 13.9805 0.606445 13.9453 0.325195 13.9102C1.94238 14.9648 3.87598 15.5625 5.98535 15.5625C12.7705 15.5625 16.4619 9.97266 16.4619 5.08594C16.4619 4.91016 16.4619 4.76953 16.4619 4.59375Z" fill="white"/>
</svg>
