<svg width="17" height="16" viewBox="0 0 17 16" fill="none" xmlns="http://www.w3.org/2000/svg">
<path d="M3.96582 16V5.48828H0.696289V16H3.96582ZM2.31348 4.08203C3.36816 4.08203 4.21191 3.20312 4.21191 2.14844C4.21191 1.12891 3.36816 0.285156 2.31348 0.285156C1.29395 0.285156 0.450195 1.12891 0.450195 2.14844C0.450195 3.20312 1.29395 4.08203 2.31348 4.08203ZM16.165 16H16.2002V10.2344C16.2002 7.42188 15.5674 5.24219 12.2627 5.24219C10.6807 5.24219 9.62598 6.12109 9.16895 6.92969H9.13379V5.48828H6.00488V16H9.27441V10.7969C9.27441 9.42578 9.52051 8.125 11.208 8.125C12.8955 8.125 12.9307 9.67188 12.9307 10.9023V16H16.165Z" fill="white"/>
</svg>
