<svg width="18" height="18" viewBox="0 0 18 18" fill="none" xmlns="http://www.w3.org/2000/svg">
<path d="M8.8252 4.60742C6.4502 4.60742 4.55762 6.53711 4.55762 8.875C4.55762 11.25 6.4502 13.1426 8.8252 13.1426C11.1631 13.1426 13.0928 11.25 13.0928 8.875C13.0928 6.53711 11.1631 4.60742 8.8252 4.60742ZM8.8252 11.6582C7.30371 11.6582 6.04199 10.4336 6.04199 8.875C6.04199 7.35352 7.2666 6.12891 8.8252 6.12891C10.3467 6.12891 11.5713 7.35352 11.5713 8.875C11.5713 10.4336 10.3467 11.6582 8.8252 11.6582ZM14.2432 4.45898C14.2432 3.90234 13.7979 3.45703 13.2412 3.45703C12.6846 3.45703 12.2393 3.90234 12.2393 4.45898C12.2393 5.01562 12.6846 5.46094 13.2412 5.46094C13.7979 5.46094 14.2432 5.01562 14.2432 4.45898ZM17.0635 5.46094C16.9893 4.125 16.6924 2.9375 15.7275 1.97266C14.7627 1.00781 13.5752 0.710938 12.2393 0.636719C10.8662 0.5625 6.74707 0.5625 5.37402 0.636719C4.03809 0.710938 2.8877 1.00781 1.88574 1.97266C0.920898 2.9375 0.624023 4.125 0.549805 5.46094C0.475586 6.83398 0.475586 10.9531 0.549805 12.3262C0.624023 13.6621 0.920898 14.8125 1.88574 15.8145C2.8877 16.7793 4.03809 17.0762 5.37402 17.1504C6.74707 17.2246 10.8662 17.2246 12.2393 17.1504C13.5752 17.0762 14.7627 16.7793 15.7275 15.8145C16.6924 14.8125 16.9893 13.6621 17.0635 12.3262C17.1377 10.9531 17.1377 6.83398 17.0635 5.46094ZM15.2822 13.7734C15.0225 14.5156 14.4287 15.0723 13.7236 15.3691C12.6104 15.8145 10.0127 15.7031 8.8252 15.7031C7.60059 15.7031 5.00293 15.8145 3.92676 15.3691C3.18457 15.0723 2.62793 14.5156 2.33105 13.7734C1.88574 12.6973 1.99707 10.0996 1.99707 8.875C1.99707 7.6875 1.88574 5.08984 2.33105 3.97656C2.62793 3.27148 3.18457 2.71484 3.92676 2.41797C5.00293 1.97266 7.60059 2.08398 8.8252 2.08398C10.0127 2.08398 12.6104 1.97266 13.7236 2.41797C14.4287 2.67773 14.9854 3.27148 15.2822 3.97656C15.7275 5.08984 15.6162 7.6875 15.6162 8.875C15.6162 10.0996 15.7275 12.6973 15.2822 13.7734Z" fill="white"/>
</svg>
