<svg width="40" height="43" viewBox="0 0 40 43" fill="none" xmlns="http://www.w3.org/2000/svg">
<rect width="40" height="42.3656" transform="translate(0 0.150513)" fill="white"/>
<path d="M9 5.94623H31C31.9569 5.94623 32.6244 5.94729 33.1279 6.01499C33.6171 6.08076 33.8762 6.20106 34.0607 6.38557C34.2452 6.57008 34.3655 6.82912 34.4312 7.31831C34.4989 7.82188 34.5 8.48928 34.5 9.44623V33.2204C34.5 34.1774 34.4989 34.8448 34.4312 35.3483C34.3655 35.8375 34.2452 36.0966 34.0607 36.2811C33.8762 36.4656 33.6171 36.5859 33.1279 36.6517C32.6244 36.7194 31.9569 36.7204 31 36.7204H9C8.04306 36.7204 7.37565 36.7194 6.87208 36.6517C6.3829 36.5859 6.12385 36.4656 5.93934 36.2811C5.75483 36.0966 5.63453 35.8375 5.56876 35.3483C5.50106 34.8448 5.5 34.1774 5.5 33.2204V9.44623C5.5 8.48929 5.50106 7.82188 5.56876 7.31831C5.63453 6.82912 5.75483 6.57008 5.93934 6.38557C6.12385 6.20106 6.3829 6.08076 6.87208 6.01499C7.37565 5.94729 8.04306 5.94623 9 5.94623Z" fill="#D9D9D9" stroke="#222222"/>
<path d="M20 14.2724L20 28.3943" stroke="#222222" stroke-linejoin="round"/>
<path d="M26.6665 21.3333L13.3332 21.3333" stroke="#222222" stroke-linejoin="round"/>
</svg>
