<svg width="40" height="43" viewBox="0 0 40 43" fill="none" xmlns="http://www.w3.org/2000/svg">
<path d="M26.1668 21.2743C26.1668 24.9252 23.3792 27.8352 20.0002 27.8352C16.6211 27.8352 13.8335 24.9252 13.8335 21.2743C13.8335 17.6233 16.6211 14.7133 20.0002 14.7133C23.3792 14.7133 26.1668 17.6233 26.1668 21.2743Z" stroke="#222222"/>
<path d="M34.2807 20.2349C34.6272 20.7108 34.8004 20.9487 34.8004 21.2742C34.8004 21.5997 34.6272 21.8376 34.2807 22.3135C32.3379 24.9819 26.6787 31.8656 20 31.8656C13.3213 31.8656 7.66212 24.9819 5.71933 22.3135C5.37283 21.8376 5.19957 21.5997 5.19957 21.2742C5.19957 20.9487 5.37283 20.7108 5.71933 20.2349C7.66212 17.5665 13.3213 10.6828 20 10.6828C26.6787 10.6828 32.3379 17.5665 34.2807 20.2349Z" stroke="#222222"/>
</svg>
